#tb 0: 1/25
#media_type 0: video
#codec_id 0: rawvideo
#dimensions 0: 352x256
#sar 0: 1/1
0,          0,          0,        1,   270336, 0xf3a5d7a2
0,          1,          1,        1,   270336, 0x5f8cd7a0
0,          2,          2,        1,   270336, 0x48c6d798
0,          3,          3,        1,   270336, 0xf21ed7a4
0,          4,          4,        1,   270336, 0xa528d7a2
0,          5,          5,        1,   270336, 0xd0ead798
0,          6,          6,        1,   270336, 0xf8d2d790
0,          7,          7,        1,   270336, 0xbb07d7a4
0,          8,          8,        1,   270336, 0xfe8fd7a4
0,          9,          9,        1,   270336, 0x5c84d78e
0,         10,         10,        1,   270336, 0xb9e4d79a
0,         11,         11,        1,   270336, 0x3104d7a2
0,         12,         12,        1,   270336, 0x7772d7a4
0,         13,         13,        1,   270336, 0x6697d7a2
0,         14,         14,        1,   270336, 0x9de7d7a2
0,         15,         15,        1,   270336, 0x5653d7a4
0,         16,         16,        1,   270336, 0x3175d7a2
0,         17,         17,        1,   270336, 0xd1e2d7a4
0,         18,         18,        1,   270336, 0x3a82d7a2
0,         19,         19,        1,   270336, 0x0af9d7a4
0,         20,         20,        1,   270336, 0x2939d7a4
0,         21,         21,        1,   270336, 0xea8dd7a2
0,         22,         22,        1,   270336, 0xc326d7a2
0,         23,         23,        1,   270336, 0x7b84d7a2
0,         24,         24,        1,   270336, 0xd846d7a4
0,         25,         25,        1,   270336, 0x893ad798
0,         26,         26,        1,   270336, 0x0689d790
0,         27,         27,        1,   270336, 0x3623d796
0,         28,         28,        1,   270336, 0x934cd77a
0,         29,         29,        1,   270336, 0x23d7d7a4
0,         30,         30,        1,   270336, 0x1c55d7a0
0,         31,         31,        1,   270336, 0xf320d7a4
0,         32,         32,        1,   270336, 0x2628d78c
0,         33,         33,        1,   270336, 0x283dd7a4
0,         34,         34,        1,   270336, 0xb5d2d79a
0,         35,         35,        1,   270336, 0xd544d7a4
0,         36,         36,        1,   270336, 0xc4d4d79a
0,         37,         37,        1,   270336, 0x14f4d7a4
0,         38,         38,        1,   270336, 0xbbecd79a
0,         39,         39,        1,   270336, 0x52add79a
0,         40,         40,        1,   270336, 0x125fd798
0,         41,         41,        1,   270336, 0x6247d79a
0,         42,         42,        1,   270336, 0xf0a7d7a4
0,         43,         43,        1,   270336, 0xf28cd7a4
0,         44,         44,        1,   270336, 0xc642d79a
0,         45,         45,        1,   270336, 0x510bd79a
0,         46,         46,        1,   270336, 0xc79bd7a4
0,         47,         47,        1,   270336, 0x5cc8d790
0,         48,         48,        1,   270336, 0xeea6d78e
0,         49,         49,        1,   270336, 0xddc9d790
